<svg width="32" height="32" viewBox="0 0 32 32" fill="none" xmlns="http://www.w3.org/2000/svg">
<path d="M15.75 15.5H15.25C14.4216 15.5 13.75 16.1716 13.75 17V23C13.75 23.8284 14.4216 24.5 15.25 24.5H25.25C26.0784 24.5 26.75 23.8284 26.75 23V17C26.75 16.1716 26.0784 15.5 25.25 15.5H24.25V10.5H25.25C28.8399 10.5 31.75 13.4101 31.75 17V23C31.75 26.5899 28.8399 29.5 25.25 29.5H15.25C11.6601 29.5 8.75 26.5899 8.75 23V17C8.75 13.4101 11.6601 10.5 15.25 10.5H15.75V15.5Z" />
<path d="M16.75 2.5C20.3399 2.5 23.25 5.41015 23.25 9V15C23.25 18.5899 20.3399 21.5 16.75 21.5H15.25V16.5H16.75C17.5784 16.5 18.25 15.8284 18.25 15V9C18.25 8.17157 17.5784 7.5 16.75 7.5H6.75C5.92157 7.5 5.25 8.17157 5.25 9V15C5.25 15.8284 5.92157 16.5 6.75 16.5H7.25V21.5H6.75C3.16015 21.5 0.25 18.5899 0.25 15V9C0.25 5.41015 3.16015 2.5 6.75 2.5H16.75Z" />
</svg>
