<svg width="20" height="20" viewBox="0 0 20 20" xmlns="http://www.w3.org/2000/svg">
<path d="M9.99978 0.970703C10.7039 0.97065 11.4012 1.10798 12.0517 1.37484C12.7022 1.64171 13.2933 2.03289 13.7913 2.52604C14.2892 3.01919 14.6841 3.60467 14.9536 4.24902C15.2231 4.89338 15.3618 5.584 15.3618 6.28145C15.3618 6.9789 15.2231 7.66952 14.9536 8.31388C14.6841 8.95823 14.2892 9.5437 13.7913 10.0369C13.2933 10.53 12.7022 10.9212 12.0517 11.1881C11.4012 11.4549 10.7039 11.5922 9.99978 11.5922C8.57788 11.5921 7.21424 11.0325 6.20884 10.0366C5.20344 9.04063 4.63861 7.68988 4.63861 6.28145C4.63861 4.87302 5.20344 3.52228 6.20884 2.52633C7.21424 1.53038 8.57788 0.970811 9.99978 0.970703ZM9.99979 12.1606C15.9243 12.1606 18.9996 14.5372 18.9996 17.4713C18.9996 18.5083 18.9996 17.9926 18.9996 19.0295H1.00005L1 17.4713C1 14.5372 4.07525 12.1606 9.99979 12.1606Z"/>
<path d="M18.9996 17.4713C18.9996 14.5372 15.9243 12.1606 9.99979 12.1606C4.07525 12.1606 1 14.5372 1 17.4713L1.00005 19.0295H18.9996C18.9996 17.9926 18.9996 18.5083 18.9996 17.4713Z"/>
</svg>
